<svg width="29" height="34" viewBox="0 0 29 34" fill="none" xmlns="http://www.w3.org/2000/svg">
<path d="M12.4302 0C10.1513 0 8.28678 1.86453 8.28678 4.14339H4.14339C1.86453 4.14339 0 6.00792 0 8.28678H29.0037C29.0037 6.00792 27.1392 4.14339 24.8604 4.14339H20.717C20.717 1.86453 18.8524 0 16.5736 0H12.4302ZM4.14339 12.4302V32.3599C4.14339 32.8157 4.47486 33.1471 4.93064 33.1471H24.1145C24.5703 33.1471 24.9018 32.8157 24.9018 32.3599V12.4302H20.7584V26.932C20.7584 28.0922 19.8468 29.0037 18.6867 29.0037C17.5265 29.0037 16.615 28.0922 16.615 26.932V12.4302H12.4716V26.932C12.4716 28.0922 11.5601 29.0037 10.3999 29.0037C9.23976 29.0037 8.32822 28.0922 8.32822 26.932V12.4302H4.18483H4.14339Z" fill="black"/>
</svg>
