<svg width="97" height="21" viewBox="0 0 97 21" fill="none" xmlns="http://www.w3.org/2000/svg">
<path d="M9.60326 1.81699C9.97008 1.07374 11.0299 1.07374 11.3967 1.81699L13.3532 5.78122C13.4989 6.07636 13.7804 6.28093 14.1061 6.32826L18.4809 6.96395C19.3012 7.08314 19.6287 8.09111 19.0351 8.66965L15.8695 11.7554C15.6338 11.9851 15.5263 12.3161 15.5819 12.6405L16.3292 16.9976C16.4693 17.8145 15.6119 18.4375 14.8783 18.0518L10.9653 15.9946C10.674 15.8415 10.326 15.8415 10.0347 15.9946L6.12173 18.0518C5.3881 18.4375 4.53067 17.8145 4.67078 16.9976L5.41808 12.6405C5.47372 12.3161 5.36617 11.9851 5.13048 11.7554L1.96486 8.66965C1.37134 8.09111 1.69885 7.08314 2.51907 6.96395L6.89386 6.32826C7.21957 6.28093 7.50114 6.07636 7.6468 5.78122L9.60326 1.81699Z" fill="#FFCE07"/>
<path d="M28.6033 1.81699C28.9701 1.07374 30.0299 1.07374 30.3967 1.81699L32.3532 5.78122C32.4989 6.07636 32.7804 6.28093 33.1061 6.32826L37.4809 6.96395C38.3012 7.08314 38.6287 8.09111 38.0351 8.66965L34.8695 11.7554C34.6338 11.9851 34.5263 12.3161 34.5819 12.6405L35.3292 16.9976C35.4693 17.8145 34.6119 18.4375 33.8783 18.0518L29.9653 15.9946C29.674 15.8415 29.326 15.8415 29.0347 15.9946L25.1217 18.0518C24.3881 18.4375 23.5307 17.8145 23.6708 16.9976L24.4181 12.6405C24.4737 12.3161 24.3662 11.9851 24.1305 11.7554L20.9649 8.66965C20.3713 8.09111 20.6988 7.08314 21.5191 6.96395L25.8939 6.32826C26.2196 6.28093 26.5011 6.07636 26.6468 5.78122L28.6033 1.81699Z" fill="#FFCE07"/>
<path d="M47.6033 1.81699C47.9701 1.07374 49.0299 1.07374 49.3967 1.81699L51.3532 5.78122C51.4989 6.07636 51.7804 6.28093 52.1061 6.32826L56.4809 6.96395C57.3012 7.08314 57.6287 8.09111 57.0351 8.66965L53.8695 11.7554C53.6338 11.9851 53.5263 12.3161 53.5819 12.6405L54.3292 16.9976C54.4693 17.8145 53.6119 18.4375 52.8783 18.0518L48.9653 15.9946C48.674 15.8415 48.326 15.8415 48.0347 15.9946L44.1217 18.0518C43.3881 18.4375 42.5307 17.8145 42.6708 16.9976L43.4181 12.6405C43.4737 12.3161 43.3662 11.9851 43.1305 11.7554L39.9649 8.66965C39.3713 8.09111 39.6988 7.08314 40.5191 6.96395L44.8939 6.32826C45.2196 6.28093 45.5011 6.07636 45.6468 5.78122L47.6033 1.81699Z" fill="#FFCE07"/>
<path d="M66.6033 1.81699C66.9701 1.07374 68.0299 1.07374 68.3967 1.81699L70.3532 5.78122C70.4989 6.07636 70.7804 6.28093 71.1061 6.32826L75.4809 6.96395C76.3012 7.08314 76.6287 8.09111 76.0351 8.66965L72.8695 11.7554C72.6338 11.9851 72.5263 12.3161 72.5819 12.6405L73.3292 16.9976C73.4693 17.8145 72.6119 18.4375 71.8783 18.0518L67.9653 15.9946C67.674 15.8415 67.326 15.8415 67.0347 15.9946L63.1217 18.0518C62.3881 18.4375 61.5307 17.8145 61.6708 16.9976L62.4181 12.6405C62.4737 12.3161 62.3662 11.9851 62.1305 11.7554L58.9649 8.66965C58.3713 8.09111 58.6988 7.08314 59.5191 6.96395L63.8939 6.32826C64.2196 6.28093 64.5011 6.07636 64.6468 5.78122L66.6033 1.81699Z" fill="#FFCE07"/>
<path d="M85.6033 1.81699C85.9701 1.07374 87.0299 1.07374 87.3967 1.81699L89.3532 5.78122C89.4989 6.07636 89.7804 6.28093 90.1061 6.32826L94.4809 6.96395C95.3012 7.08314 95.6287 8.09111 95.0351 8.66965L91.8695 11.7554C91.6338 11.9851 91.5263 12.3161 91.5819 12.6405L92.3292 16.9976C92.4693 17.8145 91.6119 18.4375 90.8783 18.0518L86.9653 15.9946C86.674 15.8415 86.326 15.8415 86.0347 15.9946L82.1217 18.0518C81.3881 18.4375 80.5307 17.8145 80.6708 16.9976L81.4181 12.6405C81.4737 12.3161 81.3662 11.9851 81.1305 11.7554L77.9649 8.66965C77.3713 8.09111 77.6988 7.08314 78.5191 6.96395L82.8939 6.32826C83.2196 6.28093 83.5011 6.07636 83.6468 5.78122L85.6033 1.81699Z" fill="#FFCE07"/>
</svg>
