<svg width="185" height="24" viewBox="0 0 185 24" fill="none" xmlns="http://www.w3.org/2000/svg">
<g clip-path="url(#clip0_349_4407)">
<path opacity="0.07" d="M35 0H3C1.3 0 0 1.3 0 3V21C0 22.7 1.4 24 3 24H35C36.7 24 38 22.7 38 21V3C38 1.3 36.6 0 35 0Z" fill="black"/>
<path d="M35 1C36.1 1 37 1.9 37 3V21C37 22.1 36.1 23 35 23H3C1.9 23 1 22.1 1 21V3C1 1.9 1.9 1 3 1H35Z" fill="#006FCF"/>
<path d="M8.971 10.268L9.745 12.144H8.203L8.971 10.268ZM25.046 10.346H22.069V11.173H24.998V12.412H22.075V13.334H25.052V14.073L27.129 11.828L25.052 9.488L25.046 10.346ZM10.983 8.006H14.978L15.865 9.941L16.687 8H27.057L28.135 9.19L29.25 8H34.013L30.494 11.852L33.977 15.68H29.143L28.065 14.49L26.94 15.68H10.03L9.536 14.49H8.406L7.911 15.68H4L7.286 8H10.716L10.983 8.006ZM19.646 9.084H17.407L15.907 12.62L14.282 9.084H12.06V13.894L10 9.084H8.007L5.625 14.596H7.18L7.674 13.406H10.27L10.764 14.596H13.484V10.661L15.235 14.602H16.425L18.165 10.673V14.603H19.623L19.647 9.083L19.646 9.084ZM28.986 11.852L31.517 9.084H29.695L28.094 10.81L26.546 9.084H20.652V14.602H26.462L28.076 12.864L29.624 14.602H31.499L28.986 11.852Z" fill="white"/>
</g>
<g clip-path="url(#clip1_349_4407)">
<path opacity="0.07" d="M84 0H52C50.3 0 49 1.3 49 3V21C49 22.7 50.4 24 52 24H84C85.7 24 87 22.7 87 21V3C87 1.3 85.6 0 84 0Z" fill="black"/>
<path d="M84 1C85.1 1 86 1.9 86 3V21C86 22.1 85.1 23 84 23H52C50.9 23 50 22.1 50 21V3C50 1.9 50.9 1 52 1H84Z" fill="white"/>
<path d="M64 19C67.866 19 71 15.866 71 12C71 8.13401 67.866 5 64 5C60.134 5 57 8.13401 57 12C57 15.866 60.134 19 64 19Z" fill="#EB001B"/>
<path d="M72 19C75.866 19 79 15.866 79 12C79 8.13401 75.866 5 72 5C68.134 5 65 8.13401 65 12C65 15.866 68.134 19 72 19Z" fill="#F79E1B"/>
<path d="M71 11.9998C71 9.5998 69.8 7.4998 68 6.2998C66.2 7.5998 65 9.6998 65 11.9998C65 14.2998 66.2 16.4998 68 17.6998C69.8 16.4998 71 14.3998 71 11.9998Z" fill="#FF5F00"/>
</g>
<g clip-path="url(#clip2_349_4407)">
<path opacity="0.07" d="M133 0H101C99.3 0 98 1.3 98 3V21C98 22.7 99.4 24 101 24H133C134.7 24 136 22.7 136 21V3C136 1.3 134.6 0 133 0Z" fill="black"/>
<path d="M133 1C134.1 1 135 1.9 135 3V21C135 22.1 134.1 23 133 23H101C99.9 23 99 22.1 99 21V3C99 1.9 99.9 1 101 1H133Z" fill="white"/>
<path d="M121.9 8.3C122.1 7.3 121.9 6.6 121.3 6C120.7 5.3 119.6 5 118.2 5H114.1C113.8 5 113.6 5.2 113.5 5.5L112 15.6C112 15.8 112.1 16 112.3 16H115L115.4 12.6L117.2 10.4L121.9 8.3Z" fill="#003087"/>
<path d="M121.9 8.2998L121.7 8.4998C121.2 11.2998 119.5 12.2998 117.1 12.2998H116C115.7 12.2998 115.5 12.4998 115.4 12.7998L114.8 16.6998L114.6 17.6998C114.6 17.8998 114.7 18.0998 114.9 18.0998H117C117.3 18.0998 117.5 17.8998 117.5 17.6998V17.5998L117.9 15.1998V15.0998C117.9 14.8998 118.2 14.6998 118.4 14.6998H118.7C120.8 14.6998 122.4 13.8998 122.8 11.4998C123 10.4998 122.9 9.6998 122.4 9.0998C122.3 8.5998 122.1 8.3998 121.9 8.2998Z" fill="#3086C8"/>
<path d="M121.3 8.0998C121.2 7.9998 121.1 7.9998 121 7.9998C120.9 7.9998 120.8 7.9998 120.7 7.8998C120.4 7.7998 120 7.7998 119.6 7.7998H116.6C116.5 7.7998 116.4 7.7998 116.4 7.8998C116.2 7.9998 116.1 8.0998 116.1 8.2998L115.4 12.6998V12.7998C115.4 12.4998 115.7 12.2998 116 12.2998H117.3C119.8 12.2998 121.4 11.2998 121.9 8.4998V8.2998C121.8 8.1998 121.6 8.0998 121.4 8.0998H121.3Z" fill="#012169"/>
</g>
<g clip-path="url(#clip3_349_4407)">
<path opacity="0.07" d="M182 0H150C148.3 0 147 1.3 147 3V21C147 22.7 148.4 24 150 24H182C183.7 24 185 22.7 185 21V3C185 1.3 183.6 0 182 0Z" fill="black"/>
<path d="M182 1C183.1 1 184 1.9 184 3V21C184 22.1 183.1 23 182 23H150C148.9 23 148 22.1 148 21V3C148 1.9 148.9 1 150 1H182Z" fill="white"/>
<path d="M175.3 10.1H175C174.6 11.1 174.3 11.6 174 13.1H175.9C175.6 11.6 175.6 10.9 175.3 10.1ZM178.2 16H176.5C176.4 16 176.4 16 176.3 15.9L176.1 15L176 14.8H173.6C173.5 14.8 173.4 14.8 173.4 15L173.1 15.9C173.1 16 173 16 173 16H170.9L171.1 15.5L174 8.7C174 8.2 174.3 8 174.8 8H176.3C176.4 8 176.5 8 176.5 8.2L177.9 14.7C178 15.1 178.1 15.4 178.1 15.8C178.2 15.9 178.2 15.9 178.2 16ZM164.8 15.7L165.2 13.9C165.3 13.9 165.4 14 165.4 14C166.1 14.3 166.8 14.5 167.5 14.4C167.7 14.4 168 14.3 168.2 14.2C168.7 14 168.7 13.5 168.3 13.1C168.1 12.9 167.8 12.8 167.5 12.6C167.1 12.4 166.7 12.2 166.4 11.9C165.2 10.9 165.6 9.5 166.3 8.8C166.9 8.4 167.2 8 168 8C169.2 8 170.5 8 171.1 8.2H171.2C171.1 8.8 171 9.3 170.8 9.9C170.3 9.7 169.8 9.5 169.3 9.5C169 9.5 168.7 9.5 168.4 9.6C168.2 9.6 168.1 9.7 168 9.8C167.8 10 167.8 10.3 168 10.5L168.5 10.9C168.9 11.1 169.3 11.3 169.6 11.5C170.1 11.8 170.6 12.3 170.7 12.9C170.9 13.8 170.6 14.6 169.8 15.2C169.3 15.6 169.1 15.8 168.4 15.8C167 15.8 165.9 15.9 165 15.6C164.9 15.8 164.9 15.8 164.8 15.7ZM161.3 16C161.4 15.3 161.4 15.3 161.5 15C162 12.8 162.5 10.5 162.9 8.3C163 8.1 163 8 163.2 8H165C164.8 9.2 164.6 10.1 164.3 11.2C164 12.7 163.7 14.2 163.3 15.7C163.3 15.9 163.2 15.9 163 15.9M152 8.2C152 8.1 152.2 8 152.3 8H155.7C156.2 8 156.6 8.3 156.7 8.8L157.6 13.2C157.6 13.3 157.6 13.3 157.7 13.4C157.7 13.3 157.8 13.3 157.8 13.3L159.9 8.2C159.8 8.1 159.9 8 160 8H162.1C162.1 8.1 162.1 8.1 162 8.2L158.9 15.5C158.8 15.7 158.8 15.8 158.7 15.9C158.6 16 158.4 15.9 158.2 15.9H156.7C156.6 15.9 156.5 15.9 156.5 15.7L154.9 9.5C154.7 9.3 154.4 9 154 8.9C153.4 8.6 152.3 8.4 152.1 8.4L152 8.2Z" fill="#142688"/>
</g>
<defs>
<clipPath id="clip0_349_4407">
<rect width="38" height="24" fill="white"/>
</clipPath>
<clipPath id="clip1_349_4407">
<rect width="38" height="24" fill="white" transform="translate(49)"/>
</clipPath>
<clipPath id="clip2_349_4407">
<rect width="38" height="24" fill="white" transform="translate(98)"/>
</clipPath>
<clipPath id="clip3_349_4407">
<rect width="38" height="24" fill="white" transform="translate(147)"/>
</clipPath>
</defs>
</svg>
